PathFileType        4      (X/Y/Z)      C:\Users\pc\Desktop\IMUTRC\Sujet_04\Sujet_04_velo_80.trc         
DataRate	CameraRate	NumFrames	NumMarkers	Units	OrigDataRate	OrigDataStartFrame	OrigNumFrames
60.0	60.0	4	64	mm	60.0	584	934
Frame#	Time	pHipOrigin			pRightASI			pLeftASI			pRightCSI			pLeftCSI			pRightIschialTub			pLeftIschialTub			pSacrum			pL5SpinalProcess			pL3SpinalProcess			pT12SpinalProcess			pIJ			pT4SpinalProcess			pT8SpinalProcess			pPX			pC7SpinalProcess			pTopOfHead			pRightAuricularis			pLeftAuricularis			pBackOfHead			pRightAcromion			pLeftAcromion			pRightArmLatEpicondyle			pRightArmMedEpicondyle			pLeftArmLatEpicondyle			pLeftArmMedEpicondyle			pRightUlnarStyloid			pRightRadialStyloid			pRightOlecranon			pLeftUlnarStyloid			pLeftRadialStyloid			pLeftOlecranon			pRightTopOfHand			pRightPinky			pRightBallHand			pLeftTopOfHand			pLeftPinky			pLeftBallHand			pRightGreaterTrochanter			pRightKneeLatEpicondyle			pRightKneeMedEpicondyle			pRightPatella			pLeftGreaterTrochanter			pLeftKneeLatEpicondyle			pLeftKneeMedEpicondyle			pLeftPatella			pRightTibialTub			pRightLatMalleolus			pRightMedMalleolus			pLeftTibialTub			pLeftLatMalleolus			pLeftMedMalleolus			pRightHeelFoot			pRightFirstMetatarsal			pRightFifthMetatarsal			pRightPivotFoot			pRightHeelCenter			pRightToe			pLeftHeelFoot			pLeftFirstMetatarsal			pLeftFifthMetatarsal			pLeftPivotFoot			pLeftHeelCenter			pLeftToe			
		X1	Y1	Z1	X2	Y2	Z2	X3	Y3	Z3	X4	Y4	Z4	X5	Y5	Z5	X6	Y6	Z6	X7	Y7	Z7	X8	Y8	Z8	X9	Y9	Z9	X10	Y10	Z10	X11	Y11	Z11	X12	Y12	Z12	X13	Y13	Z13	X14	Y14	Z14	X15	Y15	Z15	X16	Y16	Z16	X17	Y17	Z17	X18	Y18	Z18	X19	Y19	Z19	X20	Y20	Z20	X21	Y21	Z21	X22	Y22	Z22	X23	Y23	Z23	X24	Y24	Z24	X25	Y25	Z25	X26	Y26	Z26	X27	Y27	Z27	X28	Y28	Z28	X29	Y29	Z29	X30	Y30	Z30	X31	Y31	Z31	X32	Y32	Z32	X33	Y33	Z33	X34	Y34	Z34	X35	Y35	Z35	X36	Y36	Z36	X37	Y37	Z37	X38	Y38	Z38	X39	Y39	Z39	X40	Y40	Z40	X41	Y41	Z41	X42	Y42	Z42	X43	Y43	Z43	X44	Y44	Z44	X45	Y45	Z45	X46	Y46	Z46	X47	Y47	Z47	X48	Y48	Z48	X49	Y49	Z49	X50	Y50	Z50	X51	Y51	Z51	X52	Y52	Z52	X53	Y53	Z53	X54	Y54	Z54	X55	Y55	Z55	X56	Y56	Z56	X57	Y57	Z57	X58	Y58	Z58	X59	Y59	Z59	X60	Y60	Z60	X61	Y61	Z61	X62	Y62	Z62	X63	Y63	Z63	X64	Y64	Z64	
584	9.717	4.919907857114186E-14	1249.99598	5.863317863948313E-14	81.75677841783596	1323.34496	161.9078591839139	98.42604515124957	1358.83453	-129.44578240125662	48.93060570596384	1405.88423	143.19939776746276	62.53763132078441	1434.90013	-95.33280374021652	-73.47538819816884	1193.98719	49.656086526540605	-66.65685835367094	1208.55295	-69.54714942218432	-66.79653767631547	1285.65896	0.5152922808089144	-5.292348466263264	1384.1512	15.004280918036102	66.02380774164297	1482.12323	31.295331040763532	135.77392754652746	1568.41954	46.25957667721171	401.7532384333889	1573.27479	76.75055502549225	296.13685060202505	1689.62742	74.07469915242417	216.7284906880397	1642.28872	61.178397599034284	296.0491378539692	1504.08746	59.13307346066193	345.8420659503274	1717.08271	81.33627971380957	587.8281576797025	1784.42042	111.7384694680535	497.74851229877595	1735.98351	168.7627457071179	514.0561325837907	1739.56715	32.542808078155616	479.5050778988333	1784.76722	98.73307981571523	321.10278757916467	1657.72148	267.03599059530393	367.548006635555	1699.80033	-106.26991078855312	335.49445138254094	1341.03194	285.8958191002821	307.0788477072108	1333.05546	225.68433600677358	411.84773278291215	1381.08777	-97.71707161737416	372.22948565484546	1375.2499	-43.950101905117435	436.5819041890028	1110.11851	212.31593393164553	484.3704595339532	1132.83415	221.78941657959604	298.29933731819597	1326.9864	253.3481624172754	460.3967112602212	1142.02444	7.17044358305651	510.44650562176287	1159.71143	15.651964956135203	368.2903765869681	1370.56806	-77.23967110313299	649.5405489540091	1052.3179	311.8943101663639	557.4310673231406	1035.67132	263.6289950072468	498.98481726780824	1082.95222	221.2217757870092	676.883689579051	1037.40534	-0.6392172996255567	572.9256465956985	1044.28361	14.307646501566921	514.9003987012479	1107.17068	26.175378820761836	7.212231495516107	1218.37905	177.8280074741482	269.1672336427554	871.74879	202.26410970358032	279.77831831565345	865.67973	118.96336347890906	310.19387287438224	899.60869	160.06698177513078	30.168819551816327	1244.73613	-175.54223467670374	388.9067973070611	998.79453	-162.82416999725007	393.49180895379715	998.38993	-78.76831409802676	415.27574662542935	1039.19716	-119.07958520362871	326.8944925212698	830.30576	168.01040943334567	206.7758898091034	429.40073	181.50238057037163	219.6468999842993	428.82272	116.45136908874976	403.64930186288376	942.84354	-127.80990812680152	54.94118750781088	716.78536	-179.20082290860597	57.90907677040493	707.07486	-113.70771998782598	154.4018345883963	349.98269	135.81085894979833	329.50062756717193	319.34837	107.27181686914206	321.82973137821904	311.08288	191.19904537782156	349.2492153271286	310.56268	149.78075061521588	196.50031055639704	343.79803	139.04270963851624	437.8933283112516	292.18208	156.05912329365975	-33.73404428948102	670.14027	-146.67005983183418	99.70695078220302	561.24392	-94.37844398173739	102.41766123894058	555.98406	-178.82167919621406	119.49532007799368	543.44133	-133.92066489506254	0.41418898012078387	644.8236	-144.01069877267707	188.9776432983143	485.40952	-128.08791774588886	
585	9.733	4.919907857114186E-14	1249.99598	5.863317863948313E-14	82.78382813278917	1323.22936	161.42333790758585	97.24020255845306	1359.23914	-129.95980619954776	49.67773629022248	1405.71083	143.1006485590339	61.523304624674175	1435.18914	-95.46256562082142	-73.02242003924177	1193.81379	50.10599212008021	-67.09963204179371	1208.49515	-69.1756181837855	-66.84640862369056	1285.48556	1.085319817694554	-5.388035109304645	1384.1512	15.160024086244118	65.83091787747117	1482.18103	31.155374689354318	135.5723891988498	1568.59294	45.74961455850547	401.630052692087	1573.6794	75.34485625504394	295.9251113556669	1689.91642	72.74329254133508	216.4811289842513	1642.51992	60.25415753952653	295.92037385499344	1504.37647	58.260236247507194	345.64458162179017	1717.42951	79.8420197778606	587.643383514256	1785.05623	109.6299110542827	497.70522638371665	1736.56152	166.91272726124836	513.7685551907749	1740.02955	30.671416897368914	479.29893865891404	1785.22963	96.86880645202481	321.5425127902204	1658.06829	265.7615868370068	366.85480744568804	1699.74253	-107.72547927380816	335.21147488176666	1341.43655	285.37873916447955	306.6630326721236	1333.40226	225.27870778204624	411.2089990047857	1381.08777	-98.38836405497514	371.70933549321103	1375.36551	-44.56999272893373	435.7462124392435	1110.11851	212.48898172730978	483.5205192942491	1132.66075	222.12532536056452	297.97920126570574	1327.4488	252.78679745221618	459.4724647728374	1142.25565	7.417797626400471	509.52225913437906	1159.88483	15.899318999479163	367.73307330149373	1370.62586	-77.90383929576157	648.3735493155227	1051.9711	312.5717289673082	556.3597390068068	1035.44012	264.15068349573517	498.0091755945158	1082.77882	221.5877211072896	675.8139008221397	1037.23194	0.33389459305976743	571.795800081052	1044.39922	15.02934267132349	513.8804796591431	1107.34408	26.578477264882196	8.4250404017926	1217.45424	177.56486538143707	255.0072941905528	859.43726	197.16870512062928	263.908324429435	853.0792	113.71834851896939	296.54236487447633	885.44754	154.31859492410848	29.775909150624216	1246.35455	-175.74072454731447	399.15489293323463	1016.53932	-165.5379797638517	404.1099115798361	1016.01912	-81.49078643645478	423.88096982029447	1057.92456	-121.77302011694229	311.6087670014374	817.35842	162.65241086335283	188.90013430880748	417.2048	176.20496488244987	201.80830403571935	416.56899	111.19823843008473	414.4246718956641	960.76173	-129.98525756223893	68.17328388989324	730.1373	-177.09953177611567	71.6297637688447	721.0626	-111.56368981337745	135.11731009182017	339.00058	129.73376167858785	309.58603309686396	305.41842	100.89342007187538	301.72224704373934	296.40153	184.6806922291457	329.17887645604435	295.82352	143.30668126322837	177.05292630708487	332.0067	132.95134978904042	417.4300854668513	275.76671	149.38657173150608	-19.264702468249112	681.41139	-144.17334260586534	117.34040413992457	575.98307	-92.87673650770716	119.68110882936514	570.95442	-177.31132323867797	137.34303726737255	558.75849	-132.52330663590013	15.600638934619951	657.01953	-141.7384309561571	208.39238834446792	502.5185	-127.25092657015655	
586	9.75	4.919907857114186E-14	1249.99598	5.863317863948313E-14	83.552331451965	1323.17156	161.0802972212005	96.37295003084836	1359.58594	-130.36389609742108	50.21773494824064	1405.59522	143.02481164494458	60.7089932702765	1435.42034	-95.53381573098982	-72.64375812799446	1193.58259	50.46734297599526	-67.41670552889647	1208.49515	-68.83410939637807	-66.88202984855255	1285.42776	1.4924722809553472	-5.527991460713872	1384.1512	15.352913950415923	65.67518113713925	1482.23883	31.059695706757363	135.3637125178792	1568.70855	45.321081699883074	401.52265500015227	1574.0262	74.22771990348829	295.7663043895031	1690.20543	71.74474623414757	216.33810883488627	1642.75113	59.544187739552186	295.7844715227247	1504.66547	57.468828294436264	345.45575343720327	1717.71852	78.71775918133253	587.4743973981767	1785.57643	107.80991505940457	497.67772728545617	1737.08172	165.35128532259205	513.4596114907181	1740.37636	29.044324854983074	479.1085709149049	1785.63423	95.29312245129978	321.8794206853864	1658.35729	264.7243490791254	366.22166724612435	1699.68473	-108.92964612445492	334.95139658701135	1341.72555	285.0687899223492	306.1515386544395	1333.63347	225.02881629765082	410.58605204345804	1381.02997	-98.77107998536295	371.16068069124253	1375.48111	-44.86415515426532	434.86624974854806	1110.00291	212.69919030725822	482.70773860626093	1132.48734	222.50551917078974	297.6005457823345	1327.7378	252.42545425674552	458.66680832982166	1142.48685	7.716560943973519	508.67232532255105	1160.11604	16.235235440892097	367.1472794640059	1370.62586	-78.24227785733711	647.295104414661	1051.56649	313.1748415205726	555.3769666606659	1035.15112	264.5980516482234	497.11495798599947	1082.60542	221.96078301209803	674.8326591424083	1037.11634	1.2327066659416346	570.7916614278699	1044.45702	15.721009962212577	512.9791442335305	1107.51748	27.032977322787133	9.216454782739632	1216.76063	177.42897070961277	242.02202549491005	849.49556	193.65306030630873	249.62014733516105	842.90629	110.08870689207774	284.006995344497	873.94522	150.34997429041636	29.501588793800252	1247.74176	-175.88780514369608	407.9616544757774	1033.2437	-167.721452558459	413.33096391893247	1032.72349	-83.72006726628393	431.1705667929931	1075.43814	-123.966146937129	297.74912276578584	806.3185	158.81409255549056	170.4899865848084	407.5521	170.45052701646057	183.60529466583688	406.97409	105.42089593020029	424.4615610602601	977.63951	-131.69186611027112	82.29400553449749	740.19461	-174.8384422237086	86.27622149320179	731.75572	-109.21557742232368	115.36405113571475	330.85069	122.91819119963732	289.2714027478233	294.0895	94.39797798497074	280.88186652662523	284.379	178.09822607102603	308.4570859832983	283.68539	136.77562437933778	157.12966803238223	322.98981	126.20296008022896	396.2426102442114	261.72116	143.01990007145324	-3.3438333251504275	689.15667	-141.38551143163184	136.7368390165485	587.9478	-90.89258010155174	138.7960991041927	583.09255	-175.39281693625202	157.04230356903057	571.41683	-130.71779037140337	32.32002618744142	665.86302	-139.16793383941285	229.85157879494852	517.43106	-125.86581337723631	
587	9.767	4.919907857114186E-14	1249.99598	5.863317863948313E-14	83.93658694177513	1323.11375	160.90877366406983	95.85433819606791	1359.81714	-130.5323494287199	50.38059593354496	1405.53742	143.03906013488938	60.176125285106835	1435.59374	-95.53940164910821	-72.45086826382266	1193.46699	50.607299327404476	-67.51238451149342	1208.49515	-68.67837265604615	-66.94055570730961	1285.31216	1.6924863900995497	-5.660823567150701	1384.1512	15.46437332193557	65.47516060011894	1482.29663	31.001162187555867	135.13366952986752	1568.82415	45.13684797966156	401.34247529907134	1574.3152	73.47346507425723	295.4904597941457	1690.43663	71.14622937781678	216.0480016612635	1642.92453	59.10853063595739	295.6200722105664	1504.89667	57.00314231197396	345.1941432434701	1718.00752	77.95638010712912	587.3211827780074	1785.92324	106.27850842749183	497.74031482379814	1737.42852	164.166966968329	513.033609645271	1740.72316	27.81725337044125	478.88258960647806	1785.98104	94.12458448595945	322.01072089284537	1658.64629	264.1614598755327	365.5086272203181	1699.80033	-109.68949329968042	334.46993787607084	1341.89895	284.9446139598627	305.58151754542996	1333.80687	224.9789530107202	409.8689439101908	1381.08777	-98.54663057591407	370.5178928939756	1375.71231	-44.55114977462358	434.01630950884396	1109.94511	213.0350990882268	481.8506805494606	1132.31394	222.92286610485485	297.0376501508657	1327.96901	252.29414638884222	457.9212096445409	1142.66025	8.266739984475436	507.9710040060826	1160.28944	16.748261357554128	366.4673244545785	1370.74146	-77.97355107907595	646.2680611275839	1051.27749	313.65937045734506	554.3499233735888	1034.97772	265.08258058499587	496.2578999291991	1082.48982	222.37812994616314	673.9471041057182	1037.00074	1.975775570615383	569.9503760995478	1044.51482	16.4269321709225	512.1449908106251	1107.69088	27.65746261096882	9.349286889176454	1216.18263	177.31751133809314	230.71578447278654	841.86588	192.04848191677735	237.61817734256357	835.10321	108.46429409448318	273.1735568893638	865.04392	148.49957252395063	29.42728254612048	1248.72437	-175.97635988132063	415.7500365356377	1048.61866	-169.050403504749	421.4521845339295	1048.44526	-85.10194529746042	437.53746326560633	1091.79572	-125.4604886493303	285.50997911232815	797.53281	157.08686886988224	151.8182363275206	400.73163	163.9347036483917	165.53358673598166	400.55822	99.08065013840263	433.7757626013465	993.53468	-132.6411496032403	97.70337423203594	746.84168	-172.30051019431494	102.21133269836918	739.0964	-106.59061489383895	95.49625615438168	325.76424	115.066913629215	268.8310645373181	285.41941	87.93256477693352	259.352888944454	275.0731	171.41448858431494	287.3138957899151	274.14829	130.37179316756902	137.0262441449191	316.97854	118.70031677475478	374.50956453375545	250.21883999999997	137.26193454322785	14.147127472678818	693.14491	-138.25518767668237	158.01486597263954	597.1381	-88.37455659602922	159.74127218425826	592.10944	-172.8218534900908	178.65316265238204	581.18513	-128.25270161121176	50.565248242377805	671.12288	-136.21778212509994	253.29669002356735	529.91599	-123.73257814630438	
